<svg width="112" height="221" viewBox="0 0 112 221" fill="none" xmlns="http://www.w3.org/2000/svg">
<path d="M14.7703 159.199C15.0233 159.165 15.2755 159.105 15.5154 159.059C15.5531 159.045 15.5916 159.056 15.6293 159.042C15.8692 158.996 16.1091 158.949 16.3359 158.89C16.3613 158.889 16.3989 158.875 16.4243 158.874C16.6765 158.815 16.9164 158.768 17.1555 158.696C17.2063 158.694 17.2562 158.667 17.307 158.665C17.546 158.593 17.786 158.547 18.025 158.475C18.0627 158.461 18.1135 158.459 18.1511 158.445C18.3902 158.373 18.6292 158.301 18.8683 158.229L18.8805 158.216C19.1196 158.144 19.3709 158.058 19.5969 157.974C19.6345 157.96 19.6722 157.946 19.7098 157.932C19.9358 157.848 20.1617 157.763 20.3876 157.679C20.4253 157.665 20.4629 157.651 20.5128 157.623C20.7388 157.539 20.977 157.442 21.2029 157.357C21.2152 157.344 21.2283 157.356 21.2406 157.343C21.4665 157.259 21.6793 157.162 21.8921 157.065C21.9298 157.051 21.942 157.038 21.9797 157.024C22.1925 156.927 22.4053 156.831 22.6304 156.721C22.668 156.707 22.7057 156.693 22.7433 156.679C22.9561 156.582 23.1812 156.472 23.3809 156.363C23.3932 156.35 23.4185 156.349 23.4431 156.323C23.6559 156.226 23.8678 156.104 24.0675 155.995C24.0798 155.982 24.0929 155.994 24.1051 155.981C24.3048 155.872 24.5168 155.749 24.7164 155.64C24.7541 155.626 24.7786 155.6 24.804 155.599C25.0037 155.49 25.1902 155.369 25.3899 155.26C25.4022 155.247 25.4398 155.233 25.4521 155.219C25.8506 154.976 26.236 154.72 26.6213 154.464C26.6336 154.451 26.6713 154.437 26.6835 154.424C26.8701 154.302 27.0435 154.169 27.2169 154.035C27.2292 154.022 27.2537 153.995 27.2791 153.995C27.6513 153.726 27.9851 153.447 28.3188 153.167C28.331 153.154 28.331 153.154 28.3433 153.141C28.5036 152.995 28.6648 152.874 28.8251 152.728C28.8373 152.715 28.8496 152.702 28.8619 152.689C29.0222 152.543 29.1702 152.41 29.3305 152.264C29.6257 151.973 29.9209 151.682 30.1907 151.391C30.203 151.378 30.2152 151.365 30.2152 151.365C30.3501 151.22 30.4719 151.062 30.5945 150.931L30.6068 150.917C30.8635 150.615 31.0825 150.326 31.3007 150.012L31.313 149.999C31.4225 149.855 31.5189 149.698 31.603 149.555L31.6153 149.542C31.8922 149.085 32.1314 148.643 32.319 148.176L32.3313 148.163C32.5066 147.71 32.6443 147.271 32.7312 146.834L32.7434 146.821C32.7768 146.679 32.7847 146.538 32.8049 146.384C32.8331 146.089 32.8367 145.821 32.8141 145.528C32.7967 145.388 32.7924 145.261 32.7495 145.121C32.7495 145.121 32.7495 145.121 32.7364 145.109C32.395 143.281 30.8565 141.763 27.8145 140.883C13.8998 136.836 -1.11829 147.147 -6.39287 151.287C-5.49322 148.574 -4.64433 145.862 -3.82171 143.126C-3.26217 141.255 -2.72805 139.384 -2.1939 137.514L-1.45626 134.895C0.469902 127.957 2.31902 120.996 4.33533 114.093C4.42636 114.154 4.51739 114.215 4.59616 114.289C4.84384 114.472 5.07839 114.643 5.32608 114.826C5.46962 114.936 5.61229 115.021 5.75582 115.131C5.97725 115.289 6.19783 115.422 6.41926 115.581C6.57506 115.677 6.73085 115.774 6.88665 115.871C7.10722 116.004 7.31552 116.15 7.52296 116.271C7.67876 116.368 7.83456 116.465 8.00263 116.548C8.21006 116.669 8.43063 116.802 8.65034 116.91C8.80614 117.006 8.96108 117.078 9.12914 117.161C9.34884 117.269 9.5563 117.39 9.776 117.497C9.93093 117.568 10.099 117.652 10.2417 117.737C10.4614 117.844 10.6811 117.952 10.9131 118.046C11.068 118.117 11.2229 118.188 11.3647 118.248C11.5967 118.342 11.8287 118.436 12.0738 118.543C12.2156 118.602 12.3574 118.661 12.4992 118.72C12.7697 118.825 13.027 118.919 13.2975 119.025C13.4131 119.059 13.5164 119.107 13.6197 119.154C13.9926 119.282 14.3655 119.41 14.7507 119.524C14.7761 119.523 14.8023 119.548 14.8277 119.547C15.1744 119.65 15.5211 119.753 15.8677 119.857C15.9833 119.891 16.1111 119.912 16.2266 119.946C16.4831 120.014 16.7396 120.082 16.983 120.138C17.124 120.171 17.2649 120.205 17.4059 120.238C17.6361 120.282 17.8672 120.35 18.0974 120.394C18.2384 120.427 18.3916 120.447 18.5448 120.468C18.7751 120.511 18.9922 120.542 19.2224 120.585C19.3756 120.605 19.5288 120.626 19.6698 120.659C19.8869 120.69 20.104 120.721 20.3211 120.752C20.4744 120.772 20.6276 120.793 20.7808 120.813C20.9979 120.844 21.2273 120.861 21.4313 120.88C21.5845 120.9 21.7246 120.908 21.8778 120.929C22.1071 120.946 22.3234 120.952 22.5528 120.969C22.6929 120.977 22.833 120.985 22.973 120.993C23.2024 121.011 23.4441 121.016 23.6857 121.02C23.8127 121.016 23.9274 121.025 24.0674 121.033C24.3345 121.036 24.6138 121.027 24.8808 121.03C24.957 121.028 25.0463 121.038 25.1347 121.022C25.4902 121.01 25.8457 120.998 26.2012 120.985C26.2519 120.984 26.2896 120.97 26.3281 120.981C26.6328 120.971 26.9366 120.935 27.2413 120.924C27.3552 120.908 27.469 120.891 27.5837 120.9C27.8245 120.879 28.0399 120.859 28.2675 120.825C28.4067 120.808 28.5206 120.791 28.6598 120.774C28.8752 120.754 29.0775 120.721 29.2797 120.689C29.4189 120.671 29.5582 120.654 29.6843 120.624C29.8865 120.591 30.0888 120.559 30.2657 120.527C30.4049 120.51 30.5432 120.467 30.6824 120.449C30.8716 120.404 31.0616 120.385 31.2507 120.34C31.39 120.323 31.5283 120.28 31.6675 120.262C31.8567 120.217 32.0458 120.173 32.2227 120.141C32.3488 120.111 32.5003 120.08 32.6263 120.051C32.8155 120.006 32.9915 119.949 33.1806 119.904C33.3067 119.874 33.4451 119.831 33.5712 119.801C33.7603 119.756 33.9486 119.686 34.1377 119.641C34.2507 119.599 34.3768 119.569 34.4898 119.527C34.7034 119.456 34.9048 119.398 35.1185 119.327C35.2192 119.298 35.2945 119.27 35.3952 119.241C35.6842 119.141 35.9732 119.042 36.2613 118.917C36.3489 118.876 36.4496 118.847 36.5371 118.806C36.7254 118.735 36.926 118.652 37.1142 118.582C37.2395 118.526 37.3524 118.484 37.4777 118.429C37.6405 118.359 37.7912 118.303 37.9409 118.221C38.0662 118.166 38.1914 118.111 38.3166 118.055C38.4541 117.987 38.5916 117.918 38.7422 117.862C38.8675 117.806 38.9918 117.726 39.1171 117.67C39.2546 117.602 39.3798 117.546 39.5041 117.465C39.6294 117.41 39.7537 117.329 39.879 117.274C39.9911 117.206 40.1286 117.137 40.2407 117.07C40.365 116.989 40.4903 116.934 40.6146 116.853C40.7267 116.785 40.8388 116.717 40.9632 116.636C41.0876 116.555 41.1997 116.488 41.324 116.407C41.4362 116.339 41.5351 116.259 41.6472 116.191C41.7716 116.111 41.8837 116.043 41.995 115.95C42.0939 115.87 42.1937 115.815 42.2805 115.748C42.4048 115.667 42.5161 115.574 42.6282 115.506C42.7149 115.44 42.7893 115.386 42.8761 115.319C43.3096 114.985 43.73 114.639 44.112 114.281C44.1733 114.215 44.2355 114.174 44.2968 114.108C44.408 114.015 44.5061 113.909 44.6043 113.804C44.6656 113.738 44.7269 113.672 44.8013 113.618C44.8995 113.513 44.9853 113.42 45.0834 113.315C45.1447 113.249 45.2061 113.183 45.2674 113.117C45.3532 113.025 45.4513 112.919 45.5241 112.814C45.5854 112.749 45.6344 112.696 45.6826 112.617C45.7554 112.513 45.8412 112.42 45.9139 112.316C45.963 112.263 46.0112 112.185 46.0471 112.12C46.1198 112.015 46.1926 111.91 46.2653 111.806C46.3012 111.74 46.3503 111.688 46.3862 111.623C46.4589 111.518 46.5185 111.401 46.5912 111.296C46.6272 111.231 46.6508 111.179 46.6868 111.114C46.7464 110.997 46.8191 110.893 46.8787 110.776C46.9023 110.724 46.9137 110.685 46.9374 110.633C46.997 110.516 47.0566 110.399 47.1031 110.27L47.1153 110.256C47.3161 109.803 47.4406 109.351 47.5144 108.902C47.5135 108.876 47.5249 108.837 47.5363 108.799C47.5574 108.67 47.5662 108.555 47.575 108.44C47.5733 108.389 47.5847 108.35 47.5952 108.286C47.604 108.17 47.6006 108.068 47.6094 107.953C47.6077 107.902 47.606 107.851 47.6165 107.787C47.613 107.685 47.6096 107.583 47.593 107.468C47.5913 107.417 47.5764 107.354 47.5747 107.303C47.5713 107.201 47.5424 107.1 47.5258 106.985C47.511 106.922 47.5093 106.871 47.4821 106.821C47.4533 106.719 47.4245 106.618 47.3956 106.517C47.3808 106.454 47.3536 106.403 47.3397 106.366C47.3108 106.264 47.2566 106.164 47.2277 106.063C47.2006 106.013 47.1735 105.962 47.1595 105.925C47.1053 105.824 47.0633 105.711 47.0091 105.61C46.9951 105.573 46.9557 105.536 46.9417 105.498C46.3224 104.471 45.2862 103.523 43.7351 102.759C31.1287 96.4318 11.0616 108.154 4.99039 112.04C6.41901 107.303 7.95006 102.588 9.6737 97.9309L9.74384 97.7497C9.80258 97.6072 9.84904 97.4779 9.89465 97.323C9.89465 97.323 9.89465 97.323 9.90692 97.3098L10.9353 94.6433C13.2426 88.829 15.9123 83.2068 18.9444 77.7766C19.6166 78.1113 20.5086 78.5534 21.6054 79.0397C21.7218 79.0996 21.8374 79.134 21.9538 79.1939C22.4308 79.3947 22.9473 79.6326 23.4883 79.844C23.6301 79.9031 23.7588 79.9498 23.9006 80.0088C24.2096 80.126 24.5317 80.2555 24.8539 80.385C25.0858 80.4793 25.3178 80.5735 25.562 80.6546C25.7424 80.7251 25.9227 80.7956 26.1284 80.8652C26.7464 81.0996 27.4021 81.3199 28.0831 81.5393C28.4175 81.6556 28.7642 81.7588 29.1109 81.8619C33.4398 83.2086 38.5734 84.2979 43.7697 84.2354C44.0237 84.2267 44.2653 84.2313 44.5192 84.2226C44.5954 84.22 44.6716 84.2174 44.7477 84.2148C44.9377 84.1955 45.1286 84.2018 45.3186 84.1825C45.3948 84.1799 45.4456 84.1782 45.5217 84.1756C45.7625 84.1546 46.0164 84.1459 46.2572 84.1249C46.308 84.1232 46.3334 84.1223 46.3842 84.1206C46.5873 84.1136 46.7896 84.0812 46.9796 84.0619C47.0557 84.0593 47.1188 84.0444 47.195 84.0418C47.385 84.0225 47.575 84.0033 47.7518 83.9717C47.8026 83.9699 47.8534 83.9682 47.8911 83.9542C48.1187 83.9208 48.3464 83.8875 48.574 83.8542C48.6248 83.8525 48.6879 83.8375 48.7255 83.8235C48.9024 83.7919 49.0793 83.7603 49.2561 83.7287C49.3192 83.7138 49.3822 83.6989 49.4453 83.6839C49.6475 83.6515 49.8498 83.619 50.039 83.5742C50.0643 83.5734 50.0766 83.5602 50.0897 83.5725C50.3043 83.5269 50.5188 83.4812 50.7333 83.4356C50.7964 83.4206 50.834 83.4066 50.8848 83.4048C51.0486 83.3609 51.2123 83.317 51.3638 83.2863C51.4146 83.2845 51.4645 83.2573 51.5153 83.2556C51.7167 83.1976 51.9181 83.1396 52.1195 83.0816C52.1195 83.0816 52.1317 83.0685 52.1449 83.0808C52.334 83.036 52.5223 82.9657 52.6983 82.9086C52.736 82.8945 52.799 82.8796 52.8367 82.8655C52.9873 82.8093 53.151 82.7654 53.3016 82.7092C53.3393 82.6951 53.3647 82.6942 53.4024 82.6802C53.5906 82.6099 53.7666 82.5528 53.9418 82.4701C53.9672 82.4693 53.9794 82.4561 53.9917 82.4429C54.1423 82.3866 54.3052 82.3172 54.4427 82.2486C54.4804 82.2346 54.518 82.2205 54.5557 82.2065C54.7186 82.137 54.8815 82.0676 55.0312 81.9858L55.0435 81.9727C55.2064 81.9032 55.3684 81.8083 55.5181 81.7265C55.5304 81.7133 55.5558 81.7125 55.5803 81.6861C55.7178 81.6175 55.8422 81.5366 55.9797 81.4681C55.9919 81.4549 56.0296 81.4408 56.0419 81.4276C56.3283 81.2518 56.6024 81.0891 56.8502 80.9018C56.8625 80.8886 56.8748 80.8754 56.9002 80.8746C57.0114 80.7814 57.1235 80.7136 57.2347 80.6204C57.247 80.6072 57.247 80.6072 57.2593 80.5941C57.494 80.3944 57.7034 80.1957 57.8873 79.9978C57.8996 79.9846 57.9119 79.9714 57.9241 79.9582C58.1204 79.7471 58.2789 79.5501 58.4366 79.3276C58.5094 79.2229 58.569 79.1059 58.6294 79.0144C58.6417 79.0012 58.6417 79.0012 58.6539 78.988C58.774 78.7795 58.8678 78.5464 58.9362 78.3141L58.9485 78.3009C58.9827 78.1848 59.0046 78.0819 59.0388 77.9657C59.0388 77.9657 59.0511 77.9525 59.038 77.9402C59.081 77.7088 59.0986 77.4783 59.1031 77.2354L59.1022 77.2099C59.0244 75.2837 57.1868 73.1877 53.001 71.1846C43.0414 66.4535 26.3582 73.0014 20.073 75.8219C22.8956 70.9609 25.9781 66.2698 29.3722 61.7725L31.3811 59.1619C32.0513 58.3087 32.7347 57.4678 33.418 56.627C36.1899 53.275 39.1193 50.0709 42.1931 47.0024C42.3752 47.1239 42.5826 47.2445 42.8163 47.3899C42.9336 47.4753 43.0631 47.5475 43.1927 47.6197C43.4526 47.7897 43.738 47.9587 44.0496 48.1525C44.9844 48.7337 46.1257 49.4101 47.4877 50.2194C47.9411 50.4722 48.4085 50.7628 48.9135 51.0393C49.1726 51.1838 49.4317 51.3282 49.6785 51.4858C52.2965 52.9804 55.5202 54.7225 59.3104 56.6752C59.4916 56.7712 59.6728 56.8672 59.8531 56.9377C59.9178 56.9738 59.9695 56.9976 60.0343 57.0337C60.1507 57.0936 60.2794 57.1403 60.4089 57.2125C60.4737 57.2486 60.5507 57.2716 60.6155 57.3077C60.7319 57.3676 60.8475 57.4019 60.9639 57.4618C61.0409 57.4847 61.1188 57.5332 61.1958 57.5561C61.2991 57.6037 61.4278 57.6504 61.5311 57.6979C61.6081 57.7209 61.686 57.7693 61.7631 57.7922C61.8664 57.8398 61.9819 57.8741 62.1106 57.9208C62.1876 57.9438 62.2778 57.979 62.3426 58.0151C62.4581 58.0495 62.5614 58.0971 62.6901 58.1438C62.7671 58.1667 62.8442 58.1896 62.9089 58.2257C63.0376 58.2724 63.1532 58.3068 63.2687 58.3412C63.3458 58.3641 63.3974 58.3879 63.4745 58.4108C63.6285 58.4566 63.7826 58.5024 63.9367 58.5483C63.9752 58.5597 64.0137 58.5712 64.0522 58.5826C64.2448 58.6399 64.4374 58.6972 64.63 58.7545C64.6816 58.7783 64.7455 58.7889 64.7963 58.7872C64.9373 58.8207 65.0782 58.8542 65.2069 58.9009C65.2839 58.9238 65.3479 58.9344 65.4249 58.9573C65.5404 58.9917 65.6683 59.0129 65.7838 59.0472C65.8608 59.0702 65.9501 59.0799 66.0272 59.1028C66.1427 59.1372 66.2574 59.146 66.3599 59.1681C66.4369 59.191 66.5262 59.2007 66.6155 59.2104C66.7179 59.2325 66.8457 59.2537 66.9482 59.2757C67.0375 59.2855 67.1145 59.3084 67.2038 59.3181C67.3062 59.3401 67.4209 59.349 67.5365 59.3834C67.6258 59.3931 67.7028 59.416 67.7921 59.4257C67.9068 59.4346 68.0092 59.4567 68.1371 59.4778C68.2264 59.4876 68.2903 59.4981 68.3796 59.5079C68.5074 59.5291 68.6221 59.5379 68.7499 59.5591C68.8138 59.5697 68.89 59.5671 68.9539 59.5777C69.1325 59.5971 69.3365 59.6157 69.5151 59.6352C69.579 59.6457 69.6298 59.644 69.6937 59.6546C69.8215 59.6758 69.9484 59.6714 70.0763 59.6926C70.1656 59.7024 70.2417 59.6998 70.331 59.7095C70.4457 59.7183 70.5473 59.7149 70.6497 59.7369C70.739 59.7466 70.8152 59.744 70.9168 59.7406C71.0183 59.7371 71.1076 59.7468 71.2092 59.7434C71.2985 59.7531 71.3869 59.7373 71.4762 59.747C71.5778 59.7435 71.6671 59.7533 71.7687 59.7498C71.858 59.7595 71.9464 59.7437 72.0357 59.7535C72.1373 59.75 72.2134 59.7474 72.315 59.7439C72.4166 59.7404 72.4927 59.7378 72.5943 59.7344C72.6836 59.7441 72.772 59.7283 72.8736 59.7248C72.9752 59.7214 73.0513 59.7188 73.1529 59.7153C73.2291 59.7127 73.3306 59.7092 73.4068 59.7066C73.5084 59.7032 73.5968 59.6874 73.6861 59.6971C73.7623 59.6945 73.8507 59.6787 73.9269 59.6761C74.1169 59.6568 74.32 59.6499 74.5223 59.6174C74.5853 59.6025 74.6493 59.6131 74.7123 59.5982C74.8139 59.5947 74.9146 59.5657 75.0161 59.5623C75.0923 59.5597 75.1554 59.5447 75.2315 59.5421C75.32 59.5263 75.4338 59.5097 75.5222 59.4939C75.5853 59.4789 75.6615 59.4763 75.7245 59.4614C75.8129 59.4456 75.9268 59.429 76.0152 59.4132C76.0783 59.3982 76.1544 59.3956 76.2175 59.3807C76.3059 59.3649 76.4066 59.3359 76.5082 59.3325C76.5712 59.3175 76.6343 59.3026 76.6973 59.2877C76.798 59.2587 76.8865 59.2429 76.9872 59.2139C77.0502 59.199 77.1132 59.1841 77.1763 59.1691C77.277 59.1401 77.3654 59.1244 77.4661 59.0954C77.5169 59.0936 77.5668 59.0664 77.6176 59.0647C77.7183 59.0357 77.819 59.0067 77.9197 58.9777C77.9451 58.9768 77.9828 58.9628 77.995 58.9496C78.3724 58.8345 78.749 58.6939 79.1133 58.5665C79.1387 58.5656 79.1509 58.5524 79.1763 58.5516C79.2893 58.5094 79.3769 58.4681 79.4767 58.4136C79.5144 58.3995 79.552 58.3854 79.5897 58.3714C79.6773 58.3301 79.7771 58.2756 79.8778 58.2466C79.9155 58.2325 79.9531 58.2185 80.003 58.1912C80.0906 58.1499 80.1782 58.1086 80.278 58.0541C80.3157 58.04 80.3533 58.026 80.3901 57.9864C80.4777 57.9451 80.5653 57.9038 80.652 57.8369C80.6896 57.8229 80.7142 57.7965 80.7518 57.7824C80.8394 57.7411 80.9261 57.6743 81.0137 57.633C81.0382 57.6066 81.0636 57.6057 81.0881 57.5793C81.188 57.5248 81.2747 57.458 81.3491 57.4044C81.3614 57.3912 81.3614 57.3912 81.3737 57.378C81.7836 57.0957 82.1549 56.802 82.4869 56.4713C82.4992 56.4581 82.5115 56.4449 82.5115 56.4449C82.585 56.3658 82.6464 56.2998 82.7199 56.2207C82.7322 56.2075 82.7567 56.1811 82.769 56.1679C82.8303 56.1019 82.9039 56.0228 82.9652 55.9568C82.9898 55.9304 83.002 55.9172 83.0265 55.8909C83.0879 55.8249 83.1361 55.7466 83.2096 55.6674C83.2342 55.6411 83.2464 55.6279 83.2578 55.5892C83.306 55.5109 83.3674 55.4449 83.4278 55.3534C83.4401 55.3402 83.4646 55.3138 83.4637 55.2883C83.5119 55.21 83.5724 55.1186 83.6206 55.0403C83.6329 55.0271 83.6329 55.0271 83.6451 55.0139C83.873 54.6101 84.0623 54.1949 84.2 53.7559C84.2219 53.6529 84.257 53.5623 84.2789 53.4594C84.2781 53.4339 84.2903 53.4207 84.2895 53.3951C84.3114 53.2922 84.3211 53.2025 84.3561 53.1118C84.3553 53.0863 84.3667 53.0476 84.3658 53.0221C84.3755 52.9323 84.3974 52.8294 84.4071 52.7397C84.4062 52.7141 84.4176 52.6754 84.4168 52.6499C84.4265 52.5602 84.4353 52.4449 84.4449 52.3552C84.4441 52.3296 84.4555 52.2909 84.4546 52.2654C84.4512 52.1633 84.4608 52.0736 84.4697 51.9583C84.4688 51.9328 84.4679 51.9073 84.4671 51.8818C84.4554 50.7836 84.1732 49.5797 83.5951 48.271C78.1483 36.0408 52.7359 42.6697 44.0308 45.3429C49.0895 40.4566 54.5166 35.9409 60.264 31.8741C60.2894 31.8733 60.2894 31.8733 60.3148 31.8724L62.4623 30.3556C65.879 28.0291 69.4024 25.8522 73.0202 23.8381C73.0588 23.8495 73.0973 23.861 73.1358 23.8725C73.4054 23.9527 73.6497 24.0337 73.9062 24.1016C73.9447 24.1131 73.9701 24.1122 74.0086 24.1237C74.2651 24.1915 74.5216 24.2594 74.7903 24.3141C74.8157 24.3133 74.8543 24.3247 74.8674 24.337C75.1362 24.3917 75.4049 24.4464 75.6737 24.5011C75.7245 24.4994 75.7761 24.5232 75.8269 24.5214C76.0825 24.5638 76.3513 24.6185 76.6192 24.6477C76.67 24.6459 76.7085 24.6574 76.7593 24.6557C77.0403 24.6971 77.3082 24.7263 77.6015 24.7546L77.6269 24.7538C77.8948 24.7829 78.175 24.7989 78.4551 24.8149C78.5059 24.8132 78.5444 24.8246 78.5952 24.8229C78.8754 24.8389 79.1424 24.8425 79.4094 24.8462C79.4602 24.8444 79.511 24.8427 79.5749 24.8533C79.842 24.8569 80.1221 24.8729 80.4014 24.8634C80.4399 24.8748 80.4776 24.8608 80.5284 24.8591C80.7954 24.8627 81.0747 24.8532 81.3409 24.8313C81.3663 24.8304 81.3917 24.8296 81.4171 24.8287C81.6964 24.8192 81.9879 24.7964 82.2541 24.7746C82.3049 24.7728 82.3557 24.7711 82.4065 24.7694C82.6726 24.7475 82.9511 24.7125 83.2172 24.6906C83.268 24.6889 83.3188 24.6871 83.3696 24.6854C83.648 24.6503 83.9265 24.6153 84.2049 24.5802C84.2303 24.5793 84.2426 24.5662 84.268 24.5653C84.5464 24.5302 84.8117 24.4828 85.0902 24.4478C85.1278 24.4337 85.1786 24.432 85.204 24.4311C85.4693 24.3838 85.76 24.3355 86.0253 24.2881C86.0761 24.2864 86.1391 24.2715 86.1768 24.2574C86.4544 24.1968 86.7197 24.1494 86.9973 24.0889C87.0349 24.0748 87.0857 24.0731 87.1234 24.059C87.4009 23.9984 87.6654 23.9255 87.943 23.865C87.9552 23.8518 87.9683 23.8641 87.9806 23.8509C88.2705 23.7771 88.5349 23.7042 88.8247 23.6305C88.8624 23.6164 88.9254 23.6015 88.9631 23.5874C89.2276 23.5145 89.5043 23.4284 89.7687 23.3555C89.8186 23.3283 89.8694 23.3265 89.9193 23.2993C90.196 23.2132 90.4728 23.1271 90.7364 23.0287C90.7617 23.0278 90.7863 23.0014 90.8117 23.0006C91.0752 22.9021 91.3397 22.8292 91.6033 22.7308C91.6409 22.7168 91.6786 22.7027 91.704 22.7018C91.9676 22.6034 92.2312 22.505 92.4948 22.4066C92.5447 22.3793 92.5954 22.3776 92.6454 22.3503C92.909 22.2519 93.1594 22.1412 93.423 22.0428C93.4607 22.0287 93.5106 22.0015 93.5482 21.9874C93.8241 21.8758 94.0745 21.765 94.3504 21.6534C94.6131 21.5295 94.889 21.4179 95.1517 21.2939C95.1894 21.2799 95.2393 21.2526 95.2769 21.2386C95.5274 21.1278 95.777 20.9916 96.0274 20.8808C96.0774 20.8536 96.115 20.8395 96.1649 20.8123C96.4145 20.676 96.665 20.5652 96.9146 20.429C96.9522 20.4149 96.9645 20.4017 97.0022 20.3877C97.2395 20.2646 97.4891 20.1283 97.7264 20.0053C97.7387 19.9921 97.7763 19.978 97.7886 19.9648C98.0382 19.8286 98.2755 19.7055 98.512 19.5569C98.5619 19.5297 98.5996 19.5156 98.6495 19.4883C98.8737 19.3529 99.1233 19.2167 99.3475 19.0813C99.3852 19.0672 99.422 19.0276 99.4596 19.0136C99.6961 18.865 99.9326 18.7164 100.169 18.5678L100.181 18.5546C100.418 18.406 100.654 18.2575 100.865 18.1097C100.903 18.0957 100.927 18.0693 100.965 18.0552C101.176 17.9075 101.4 17.7721 101.624 17.6112C101.674 17.584 101.698 17.5576 101.748 17.5303C101.959 17.3826 102.183 17.2217 102.394 17.074C102.418 17.0476 102.444 17.0467 102.468 17.0203C102.679 16.8726 102.877 16.7125 103.088 16.5648C103.1 16.5516 103.113 16.5384 103.138 16.5376C103.336 16.3775 103.547 16.2298 103.745 16.0698C103.77 16.0434 103.82 16.0161 103.844 15.9897C104.042 15.8297 104.228 15.6828 104.426 15.5228C104.45 15.4964 104.488 15.4823 104.525 15.4428C104.723 15.2827 104.907 15.1104 105.105 14.9503L105.118 14.9371C105.302 14.7647 105.488 14.6179 105.673 14.4455C105.698 14.4191 105.71 14.4059 105.734 14.3795C105.907 14.2204 106.079 14.0612 106.252 13.902C106.277 13.8756 106.301 13.8492 106.338 13.8097C106.51 13.6505 106.67 13.479 106.83 13.333C106.855 13.3066 106.867 13.2934 106.891 13.267C107.051 13.0955 107.223 12.9364 107.358 12.7657L107.37 12.7525C107.529 12.581 107.676 12.4227 107.81 12.2521C107.835 12.2257 107.859 12.1993 107.872 12.1861C108.019 12.0278 108.153 11.8571 108.275 11.6997C108.299 11.6733 108.312 11.6601 108.336 11.6337C108.47 11.4631 108.604 11.2925 108.726 11.135C108.738 11.1218 108.738 11.1218 108.75 11.1086C108.872 10.9512 109.006 10.7806 109.115 10.6108C109.127 10.5976 109.139 10.5844 109.152 10.5712C109.273 10.4138 109.382 10.244 109.479 10.0874C109.503 10.061 109.502 10.0355 109.527 10.0091C109.623 9.85255 109.732 9.68277 109.828 9.52619C109.84 9.513 109.84 9.48748 109.864 9.46109C110.056 9.12242 110.223 8.81013 110.378 8.48552C110.39 8.47232 110.389 8.44681 110.401 8.43362C110.472 8.27791 110.543 8.1222 110.602 7.97968C110.614 7.96648 110.613 7.94097 110.638 7.91458C110.709 7.75887 110.755 7.60403 110.8 7.44918C110.8 7.44918 110.812 7.43599 110.799 7.42366C110.845 7.26882 110.891 7.11398 110.924 6.97233L110.923 6.94681C110.956 6.80516 110.99 6.66351 111.01 6.50953C111.009 6.48401 111.021 6.47082 111.02 6.4453C110.909 6.14255 110.93 6.01409 110.938 5.87331C110.937 5.84779 110.937 5.84779 110.936 5.82227C110.952 5.5407 110.954 5.24681 110.933 4.9793C110.932 4.95378 110.932 4.95378 110.931 4.92827C110.914 4.78835 110.897 4.67395 110.867 4.54723C110.866 4.52171 110.853 4.50938 110.852 4.48386C110.823 4.35714 110.793 4.23042 110.738 4.10456C110.738 4.10456 110.725 4.09223 110.724 4.06672C110.682 3.95319 110.627 3.82733 110.572 3.70147L110.559 3.68914C110.504 3.56329 110.436 3.45062 110.369 3.33796C110.356 3.32563 110.355 3.30012 110.342 3.28779C110.274 3.17513 110.195 3.07565 110.102 2.96386C110.089 2.95153 110.076 2.93921 110.063 2.92688C109.996 2.83973 109.903 2.72794 109.798 2.62933C108.628 1.48132 106.556 0.721779 103.371 0.49843C84.7989 -0.706758 75.1031 15.1446 72.1864 20.9797C68.4556 23.0359 64.8323 25.2673 61.3159 27.6484L59.3785 28.9919C53.4315 33.1677 47.7924 37.8056 42.5349 42.8264C45.9965 34.6862 53.42 14.0329 44.0734 5.62751C41.5959 3.40005 39.3715 2.64571 37.4627 2.9536C37.4504 2.96679 37.4373 2.95447 37.425 2.96766C36.869 3.06329 36.3287 3.2478 35.8295 3.52033L35.8173 3.53352C35.3181 3.80605 34.8346 4.16745 34.3913 4.59135L34.3791 4.60454C33.9358 5.02844 33.5083 5.54123 33.1333 6.10331C33.121 6.1165 33.121 6.1165 33.1088 6.12969C33.0361 6.23436 32.9511 6.35223 32.8915 6.46923C32.6023 6.93897 32.3271 7.44654 32.0528 7.97964C32.0406 7.99283 32.0292 8.03154 32.0169 8.04474C31.9573 8.16173 31.9108 8.29106 31.839 8.42125C31.8267 8.43445 31.8276 8.45996 31.8153 8.47316C31.6383 8.87519 31.4743 9.28956 31.3112 9.72944C31.299 9.74263 31.2998 9.76815 31.2876 9.78134C31.2411 9.91066 31.1946 10.04 31.1482 10.1693C31.1368 10.208 31.1131 10.2599 31.1017 10.2986C31.0552 10.428 31.021 10.5441 30.9877 10.6857C30.9763 10.7245 30.9649 10.7632 30.9412 10.8151C30.8158 11.2409 30.6904 11.6667 30.5904 12.0917C30.5667 12.1436 30.5684 12.1946 30.557 12.2333C30.5228 12.3495 30.5018 12.4779 30.4807 12.6064C30.4701 12.6706 30.4473 12.748 30.4368 12.8122C30.4157 12.9407 30.3815 13.0568 30.3604 13.1853C30.3376 13.2627 30.3271 13.3269 30.3174 13.4167C30.2963 13.5452 30.2621 13.6613 30.2533 13.7766C30.2428 13.8408 30.2322 13.905 30.2217 13.9692C30.1787 14.2006 30.1357 14.432 30.118 14.6626C30.1084 14.7523 30.0987 14.8421 30.0759 14.9195C30.0671 15.0348 30.0451 15.1377 30.0363 15.253C30.0267 15.3427 30.0047 15.4456 30.0082 15.5477C29.9994 15.663 29.9774 15.7659 29.9686 15.8812C29.9467 15.9841 29.9501 16.0862 29.9413 16.2015C29.9325 16.3167 29.9228 16.4065 29.914 16.5217C29.8938 16.6757 29.8858 16.8165 29.8787 16.9828C29.8577 17.1113 29.862 17.2389 29.8409 17.3673C29.8329 17.5081 29.8241 17.6234 29.8162 17.7642C29.8065 17.8539 29.81 17.956 29.8003 18.0457C29.7915 18.161 29.7958 18.2886 29.787 18.4038C29.7904 18.5059 29.7807 18.5957 29.7842 18.6977C29.7885 18.8253 29.7806 18.9661 29.7718 19.0814C29.7621 19.1711 29.7647 19.2477 29.7681 19.3498C29.7628 19.5671 29.7697 19.7712 29.7643 19.9886C29.766 20.0396 29.7677 20.0906 29.7572 20.1549C29.7501 20.3212 29.7684 20.4866 29.7613 20.6529C29.7639 20.7295 29.7674 20.8315 29.77 20.9081C29.7743 21.0357 29.7795 21.1888 29.7838 21.3164C29.7864 21.393 29.7898 21.495 29.7924 21.5716C29.7976 21.7247 29.815 21.8646 29.8202 22.0177C29.8228 22.0943 29.8254 22.1708 29.828 22.2474C29.848 22.4638 29.868 22.6803 29.888 22.8968C29.8889 22.9223 29.9029 22.9602 29.8915 22.9989C29.9107 23.1898 29.9298 23.3808 29.949 23.5717C29.9516 23.6483 29.9664 23.7116 29.9821 23.8005C29.9996 23.9404 30.0179 24.1059 30.0353 24.2458C30.0379 24.3223 30.0536 24.4112 30.0685 24.4746C30.0991 24.6268 30.1042 24.7799 30.1348 24.9322C30.1497 24.9955 30.1522 25.0721 30.1671 25.1355C30.2003 25.3643 30.2325 25.5675 30.278 25.7831C30.2788 25.8087 30.292 25.821 30.2797 25.8342C30.312 26.0375 30.3565 26.2275 30.3888 26.4308C30.4037 26.4942 30.4185 26.5575 30.4343 26.6464C30.4648 26.7987 30.4954 26.9509 30.5382 27.09C30.5662 27.1656 30.5688 27.2422 30.5968 27.3179C30.6273 27.4701 30.6702 27.6092 30.7007 27.7614C30.7156 27.8248 30.7304 27.8881 30.7453 27.9515C30.803 28.1539 30.8484 28.3695 30.9192 28.5843C30.9192 28.5843 30.9323 28.5966 30.9201 28.6098C30.9778 28.8122 31.0354 29.0146 31.0931 29.217C31.108 29.2804 31.1228 29.3437 31.1631 29.4062C31.2059 29.5453 31.2619 29.6967 31.3047 29.8357C31.3327 29.9114 31.3475 29.9748 31.3755 30.0504C31.4183 30.1895 31.4743 30.3409 31.5294 30.4667C31.5443 30.5301 31.5845 30.5926 31.5993 30.6559C31.6824 30.8575 31.7524 31.0467 31.8355 31.2483C33.0545 34.2213 34.1775 36.6099 35.1825 38.5172C35.4808 39.0691 35.752 39.5708 36.0223 40.047C36.2926 40.5231 36.5489 40.9615 36.8166 41.3611C37.1928 41.9614 37.5541 42.4983 37.8875 42.9596C37.9942 43.1092 38.101 43.2589 38.2077 43.4085C38.6338 43.9816 39.0048 44.4287 39.3478 44.8002C39.4275 44.8997 39.5062 44.9737 39.5981 45.0599C39.7294 45.1832 39.8484 45.3197 39.9534 45.4183C36.8559 48.5387 33.8906 51.8078 31.0819 55.1994L28.9224 57.8663C25.0106 62.8411 21.4253 68.0731 18.2032 73.5226C19.0526 64.437 20.3413 38.2704 7.34287 36.8876C6.78168 36.8302 6.27212 36.7965 5.76344 36.7883C5.63648 36.7926 5.52179 36.7838 5.39484 36.7881L5.36945 36.789C5.24249 36.7933 5.14093 36.7968 5.0271 36.8135L5.0017 36.8143C4.90014 36.8178 4.78631 36.8344 4.68475 36.8379L4.65936 36.8388C4.48162 36.8449 4.36779 36.8615 4.26623 36.865L4.24083 36.8659C4.13927 36.8693 4.03857 36.8983 3.93701 36.9018C3.92474 36.915 3.91161 36.9026 3.89935 36.9158C3.81091 36.9316 3.69708 36.9483 3.60865 36.9641C3.59638 36.9773 3.58325 36.9649 3.57099 36.9781C3.48255 36.9939 3.38185 37.0229 3.29341 37.0387C3.28115 37.0519 3.26802 37.0396 3.25576 37.0528C3.16732 37.0686 3.07888 37.0844 2.99131 37.1257C2.97904 37.1389 2.96592 37.1265 2.95365 37.1397C2.86521 37.1555 2.7899 37.1837 2.70233 37.225C2.69007 37.2382 2.67693 37.2258 2.66467 37.239C2.58936 37.2671 2.50093 37.2829 2.41335 37.3242C2.40109 37.3374 2.38796 37.3251 2.3757 37.3383C2.30039 37.3664 2.22508 37.3945 2.1375 37.4359C2.12524 37.449 2.11211 37.4367 2.09984 37.4499C2.02453 37.478 1.94922 37.5062 1.87477 37.5598C1.86251 37.573 1.84939 37.5607 1.83712 37.5739C1.76181 37.602 1.69963 37.6424 1.61205 37.6837C1.59979 37.6969 1.59979 37.6969 1.57439 37.6978C1.51221 37.7382 1.4369 37.7664 1.36245 37.82C1.35019 37.8332 1.35019 37.8332 1.3248 37.8341C1.26261 37.8745 1.20044 37.9149 1.12599 37.9686C1.11372 37.9818 1.11372 37.9818 1.10146 37.995C1.03927 38.0354 0.977088 38.0759 0.90264 38.1295C0.890375 38.1427 0.890375 38.1427 0.878111 38.1559C0.815926 38.1963 0.754604 38.2623 0.69242 38.3027C0.680155 38.3159 0.680161 38.3159 0.667896 38.3291C0.605712 38.3696 0.54439 38.4355 0.495332 38.4883L0.483068 38.5015C0.43401 38.5543 0.372694 38.6202 0.310509 38.6607L0.298245 38.6739C0.249187 38.7266 0.187865 38.7926 0.138808 38.8454L0.126543 38.8586C0.0774909 38.9113 0.0161689 38.9773 -0.0197617 39.0424C-0.0197617 39.0424 -0.0197617 39.0424 -0.032026 39.0556C-0.093348 39.1215 -0.129273 39.1866 -0.190595 39.2526C-0.23879 39.3309 -0.287848 39.3837 -0.336038 39.462C-1.39803 41.1333 -1.61109 43.4782 -1.20095 46.2105C-1.18437 46.3249 -1.16779 46.4393 -1.15121 46.5537C-1.15121 46.5537 -1.15121 46.5537 -1.13808 46.5661C-1.1215 46.6805 -1.10493 46.7949 -1.07609 46.8961L-1.07522 46.9216C-1.05865 47.036 -1.0298 47.1372 -1.01322 47.2516C-1.0001 47.2639 -1.01236 47.2771 -0.999233 47.2894C-0.982655 47.4038 -0.953814 47.505 -0.92411 47.6318C-0.910983 47.6441 -0.923247 47.6573 -0.91012 47.6696C-0.893543 47.784 -0.864701 47.8852 -0.822733 47.9987C-0.82187 48.0243 -0.808738 48.0366 -0.821002 48.0498C-0.792161 48.151 -0.775584 48.2654 -0.733615 48.3789C-0.732752 48.4044 -0.719625 48.4168 -0.718763 48.4423C-0.689921 48.5435 -0.673338 48.6579 -0.63137 48.7714C-0.630507 48.7969 -0.61738 48.8092 -0.616518 48.8348C-0.587676 48.936 -0.558835 49.0372 -0.529131 49.1639C-0.528268 49.1894 -0.515141 49.2018 -0.514278 49.2273C-0.485431 49.3285 -0.443463 49.442 -0.414621 49.5432C-0.413759 49.5687 -0.400632 49.5811 -0.386642 49.6189C-0.357801 49.7201 -0.315831 49.8336 -0.28699 49.9348C-0.286127 49.9604 -0.259873 49.985 -0.25901 50.0105C-0.230169 50.1117 -0.1882 50.2253 -0.159359 50.3265C-0.158496 50.352 -0.144507 50.3898 -0.13138 50.4022C-0.102538 50.5034 -0.0605645 50.6169 -0.0317231 50.7181C-0.0308604 50.7436 -0.0168712 50.7815 -0.00374371 50.7938C0.0250977 50.895 0.0670666 51.0085 0.0959087 51.1097C0.109898 51.1476 0.11076 51.1731 0.137014 51.1977C0.165856 51.299 0.20783 51.4125 0.236671 51.5137C0.250661 51.5515 0.251523 51.5771 0.277777 51.6017C0.306619 51.7029 0.348588 51.8164 0.402821 51.9168C0.41681 51.9546 0.417673 51.9801 0.443927 52.0048C0.485896 52.1183 0.527007 52.2063 0.568976 52.3199C0.582965 52.3577 0.583822 52.3832 0.597812 52.4211C0.639785 52.5346 0.680892 52.6226 0.72286 52.7362C0.73685 52.774 0.75084 52.8118 0.763966 52.8242C0.805935 52.9377 0.84704 53.0257 0.889009 53.1392C0.902998 53.1771 0.916994 53.2149 0.93012 53.2273C0.972089 53.3408 1.0132 53.4288 1.05516 53.5423C1.06915 53.5802 1.08314 53.618 1.1094 53.6427C1.15137 53.7562 1.2056 53.8565 1.23445 53.9577C1.24844 53.9956 1.26242 54.0334 1.27641 54.0713C1.31838 54.1848 1.37261 54.2851 1.41458 54.3987C1.42857 54.4365 1.44256 54.4744 1.45569 54.4867C1.49766 54.6002 1.55189 54.7006 1.59386 54.8141C1.60785 54.8519 1.62184 54.8898 1.6481 54.9144C1.70233 55.0148 1.74429 55.1283 1.79853 55.2286C1.81252 55.2665 1.83878 55.2911 1.85277 55.329C1.907 55.4293 1.94897 55.5428 2.0032 55.6432C2.01719 55.681 2.03118 55.7189 2.05743 55.7435C2.11167 55.8439 2.15364 55.9574 2.20787 56.0577C2.22186 56.0956 2.24812 56.1202 2.24898 56.1457C2.30321 56.2461 2.35831 56.3719 2.41254 56.4723C2.42653 56.5101 2.45278 56.5348 2.45365 56.5603C2.50788 56.6606 2.56298 56.7865 2.61721 56.8868C2.6312 56.9247 2.64433 56.937 2.65831 56.9748C2.72567 57.0875 2.76765 57.201 2.83501 57.3137C2.83587 57.3392 2.86212 57.3639 2.86299 57.3894C2.93035 57.5021 2.98544 57.6279 3.0528 57.7406C3.06593 57.7529 3.06679 57.7784 3.09305 57.8031C3.14814 57.9289 3.2155 58.0416 3.29599 58.1666C3.30912 58.1789 3.30998 58.2044 3.30998 58.2044C3.37821 58.3426 3.44556 58.4553 3.51378 58.5935C4.04299 59.5845 4.60986 60.5615 5.20211 61.5377C5.26947 61.6503 5.34996 61.7753 5.41732 61.888C5.44357 61.9126 5.44443 61.9381 5.47069 61.9628C5.52492 62.0631 5.60455 62.1626 5.65878 62.2629C5.67277 62.3008 5.71215 62.3378 5.72614 62.3756C5.78038 62.4759 5.84687 62.5631 5.90111 62.6634C5.92822 62.7136 5.9676 62.7506 5.98159 62.7884C6.04809 62.8756 6.10232 62.9759 6.15569 63.0507C6.18281 63.1009 6.20993 63.1511 6.24931 63.188C6.31581 63.2752 6.35691 63.3632 6.42341 63.4504C6.45053 63.5005 6.49077 63.563 6.51789 63.6132C6.57126 63.688 6.62549 63.7883 6.67886 63.8632C6.7191 63.9257 6.74623 63.9758 6.78647 64.0383C6.83984 64.1131 6.89321 64.188 6.94744 64.2883C6.98769 64.3508 7.01481 64.401 7.05505 64.4635C7.10842 64.5383 7.16179 64.6131 7.21516 64.6879C7.25541 64.7504 7.29565 64.8129 7.32277 64.8631C7.37614 64.9379 7.4295 65.0127 7.48287 65.0875C7.52311 65.15 7.56336 65.2125 7.60361 65.275C7.65698 65.3498 7.71035 65.4247 7.76372 65.4995C7.80396 65.562 7.84421 65.6245 7.88445 65.687C7.93782 65.7618 7.99119 65.8366 8.04457 65.9114C8.08481 65.9739 8.12505 66.0364 8.17756 66.0857C8.23093 66.1605 8.2843 66.2354 8.33767 66.3102C8.37791 66.3727 8.41816 66.4352 8.47067 66.4845C8.52404 66.5593 8.56429 66.6218 8.61766 66.6966C8.6579 66.7591 8.71127 66.8339 8.76377 66.8832C8.81714 66.9581 8.85739 67.0205 8.92303 67.0822C8.96327 67.1447 9.01663 67.2195 9.06914 67.2688C9.12251 67.3436 9.16276 67.4061 9.2284 67.4677C9.26864 67.5302 9.32201 67.6051 9.37451 67.6544C9.42788 67.7292 9.46813 67.7917 9.53377 67.8533C9.57401 67.9158 9.63964 67.9774 9.67989 68.0399C9.73326 68.1147 9.78577 68.164 9.83914 68.2389C9.87938 68.3014 9.94502 68.363 9.98526 68.4255C10.0255 68.488 10.0911 68.5496 10.1314 68.6121C10.1716 68.6746 10.2373 68.7362 10.2775 68.7987C10.3177 68.8612 10.3834 68.9228 10.4236 68.9853C10.4639 69.0478 10.5295 69.1095 10.5697 69.1719C10.61 69.2344 10.6756 69.2961 10.7159 69.3586C10.7561 69.4211 10.8217 69.4827 10.862 69.5452C10.9022 69.6077 10.9679 69.6693 11.0081 69.7318C11.0484 69.7943 11.114 69.8559 11.1542 69.9184C11.1945 69.9809 11.2601 70.0425 11.3004 70.105C11.3406 70.1675 11.4062 70.2292 11.4465 70.2917C11.4867 70.3542 11.5524 70.4158 11.5926 70.4783C11.6451 70.5276 11.6985 70.6024 11.751 70.6517C11.8035 70.701 11.8569 70.7758 11.9094 70.8251C11.9619 70.8744 12.0153 70.9492 12.0678 70.9985C12.1203 71.0478 12.1605 71.1103 12.2261 71.172C12.2787 71.2213 12.332 71.2961 12.3845 71.3454C12.437 71.3947 12.4773 71.4572 12.5298 71.5065C12.5823 71.5558 12.6357 71.6306 12.6882 71.6799C12.7407 71.7292 12.7809 71.7917 12.8334 71.841C12.8859 71.8903 12.9393 71.9651 12.9918 72.0145C13.0443 72.0638 13.0846 72.1262 13.1371 72.1755C13.1896 72.2248 13.243 72.2997 13.2955 72.349C13.348 72.3983 13.3882 72.4608 13.4407 72.5101C13.4932 72.5594 13.5466 72.6342 13.5991 72.6835C13.6516 72.7328 13.7041 72.7821 13.7444 72.8446C13.7969 72.8939 13.8625 72.9555 13.9028 73.018C13.9553 73.0673 14.0078 73.1166 14.048 73.1791C14.1005 73.2284 14.153 73.2777 14.2064 73.3525C14.2589 73.4018 14.3114 73.4511 14.3639 73.5004C14.4164 73.5497 14.4821 73.6114 14.5346 73.6607C14.5871 73.71 14.6396 73.7593 14.679 73.7963C14.7315 73.8456 14.784 73.8949 14.8496 73.9565C14.9021 74.0058 14.9546 74.0551 14.994 74.0921C15.0465 74.1414 15.099 74.1907 15.1516 74.24C15.2041 74.2893 15.2434 74.3263 15.2959 74.3756C15.3485 74.4249 15.401 74.4742 15.4535 74.5235C15.506 74.5728 15.5454 74.6097 15.5979 74.659C15.6504 74.7084 15.7029 74.7577 15.7554 74.807C15.8079 74.8563 15.8473 74.8932 15.8998 74.9425C15.9523 74.9918 16.0048 75.0411 16.0573 75.0904C16.0967 75.1274 16.1492 75.1767 16.1886 75.2137C16.2411 75.263 16.2936 75.3123 16.3592 75.3739C16.3986 75.4109 16.4511 75.4602 16.4905 75.4972C16.543 75.5465 16.6086 75.6081 16.6734 75.6442C16.6865 75.6566 16.7128 75.6812 16.7259 75.6935C14.4466 79.7057 12.3748 83.8386 10.5095 88.0665C9.99061 89.2595 9.4717 90.4524 8.97903 91.6699L8.0761 93.9106C6.21583 98.6622 4.5744 103.496 3.04938 108.389C2.58865 100.025 -0.382219 82.8308 -16.3648 76.6448C-19.4942 75.4359 -21.7521 75.1937 -23.2863 75.6804C-23.2863 75.6804 -23.2986 75.6936 -23.3117 75.6813C-23.4501 75.7243 -23.5753 75.7797 -23.7005 75.835C-23.7005 75.835 -23.7128 75.8482 -23.7259 75.8359C-23.8511 75.8913 -23.9632 75.959 -24.0885 76.0144C-24.3249 76.1629 -24.5229 76.323 -24.72 76.5085C-24.8058 76.6009 -24.8917 76.6933 -24.9644 76.7979L-24.9767 76.8111C-25.0494 76.9158 -25.1221 77.0205 -25.1817 77.1375C-25.1817 77.1375 -25.1817 77.1375 -25.194 77.1507C-25.3981 77.5025 -25.5376 77.8905 -25.6376 78.3154C-25.6376 78.3154 -25.6498 78.3286 -25.6367 78.341C-25.6701 78.4826 -25.6903 78.6366 -25.7236 78.7782C-25.7236 78.7782 -25.7359 78.7914 -25.7228 78.8038C-25.7834 79.2657 -25.8047 79.7646 -25.7611 80.2996L-25.7603 80.3251C-25.7542 80.5038 -25.7359 80.6692 -25.7168 80.8602L-25.7159 80.8857C-25.6461 81.4453 -25.537 82.042 -25.3762 82.6624C-25.3631 82.6747 -25.3753 82.6879 -25.3622 82.7002C-25.3045 82.9027 -25.26 83.0928 -25.1892 83.3075C-25.176 83.3198 -25.1752 83.3453 -25.1752 83.3453C-25.1175 83.5477 -25.0467 83.7625 -24.9759 83.9772L-24.9627 83.9895C-24.8211 84.419 -24.6533 84.8732 -24.4854 85.3273C-24.4722 85.3396 -24.4714 85.3651 -24.4714 85.3651C-24.3874 85.5922 -24.2912 85.806 -24.2073 86.0331C-24.2064 86.0586 -24.1933 86.0709 -24.1793 86.1088C-24.0831 86.3227 -23.9861 86.5621 -23.8899 86.7759C-23.8767 86.7883 -23.8759 86.8138 -23.8759 86.8138C-23.6695 87.2794 -23.4377 87.7441 -23.205 88.2343C-23.1919 88.2466 -23.191 88.2722 -23.1779 88.2845C-23.0686 88.5107 -22.9461 88.7492 -22.8114 88.9745C-22.7974 89.0124 -22.7843 89.0247 -22.7703 89.0625C-22.6478 89.3011 -22.5131 89.5264 -22.3907 89.7649C-22.3775 89.7772 -22.3636 89.8151 -22.3504 89.8274C-22.0801 90.3036 -21.7836 90.8044 -21.487 91.3052C-21.4739 91.3176 -21.473 91.3431 -21.4599 91.3554C-21.312 91.5931 -21.1642 91.8307 -21.0163 92.0684C-21.0024 92.1062 -20.9761 92.1309 -20.9621 92.1687C-20.8143 92.4064 -20.6664 92.644 -20.5063 92.8685C-20.48 92.8931 -20.4661 92.931 -20.4398 92.9556C-20.2788 93.2056 -20.1187 93.4301 -19.9577 93.68C-19.9446 93.6924 -19.9315 93.7047 -19.9306 93.7302C-19.7696 93.9802 -19.5964 94.217 -19.4232 94.4538C-19.41 94.4661 -19.3969 94.4784 -19.396 94.5039C-19.2228 94.7407 -19.0496 94.9775 -18.8763 95.2143C-18.8501 95.2389 -18.823 95.2891 -18.7967 95.3138C-18.6235 95.5506 -18.4502 95.7873 -18.2647 96.0109C-18.2254 96.0479 -18.2114 96.0858 -18.172 96.1227C-17.9987 96.3595 -17.8001 96.5954 -17.6269 96.8322C-17.6006 96.8569 -17.5998 96.8824 -17.5735 96.907C-17.3871 97.1562 -17.2016 97.3797 -17.003 97.6157C-16.9899 97.628 -16.9767 97.6403 -16.9636 97.6526C-16.765 97.8886 -16.5664 98.1245 -16.3677 98.3604C-16.3284 98.3974 -16.3144 98.4352 -16.275 98.4722C-16.0895 98.6958 -15.8909 98.9317 -15.6931 99.1421C-15.6537 99.1791 -15.6266 99.2293 -15.5872 99.2663C-15.3886 99.5022 -15.1908 99.7126 -14.9922 99.9485C-14.9659 99.9731 -14.9265 100.01 -14.9125 100.048C-14.7017 100.271 -14.4899 100.519 -14.279 100.742L-14.2659 100.754C-14.055 100.977 -13.831 101.212 -13.6201 101.434C-13.5807 101.471 -13.5544 101.496 -13.5151 101.533C-13.3042 101.756 -13.0933 101.979 -12.8832 102.176C-12.8439 102.213 -12.8045 102.25 -12.7651 102.287C-12.5542 102.509 -12.331 102.719 -12.121 102.916C-12.0816 102.953 -12.0554 102.978 -12.016 103.015C-11.7797 103.237 -11.5565 103.446 -11.3203 103.668C-11.3071 103.68 -11.3071 103.68 -11.294 103.693C-11.0708 103.902 -10.8346 104.124 -10.6114 104.334C-10.5852 104.358 -10.5458 104.395 -10.5195 104.42C-10.2964 104.629 -10.0609 104.826 -9.83778 105.035C-9.7984 105.072 -9.75902 105.109 -9.71964 105.146C-9.48422 105.343 -9.27418 105.54 -9.03876 105.736C-8.99938 105.773 -8.95999 105.81 -8.90835 105.834C-8.67293 106.03 -8.4375 106.227 -8.18896 106.435C-8.17583 106.448 -8.14958 106.472 -8.13645 106.485C-7.90102 106.681 -7.65334 106.864 -7.41792 107.06C-7.39167 107.085 -7.36541 107.11 -7.3269 107.121C-7.07921 107.304 -6.84378 107.501 -6.60922 107.671C-6.56984 107.708 -6.51819 107.732 -6.47881 107.769C-6.24425 107.94 -5.99657 108.123 -5.76201 108.294C-5.72263 108.331 -5.67098 108.355 -5.6316 108.392C-5.38391 108.575 -5.13708 108.732 -4.87714 108.902C-4.85088 108.927 -4.81237 108.939 -4.79924 108.951C-4.55243 109.108 -4.29247 109.278 -4.04564 109.436C-4.03251 109.448 -3.99401 109.46 -3.98088 109.472C-3.72093 109.642 -3.4741 109.8 -3.21501 109.944C-3.16337 109.968 -3.12399 110.005 -3.08547 110.016C-2.83864 110.174 -2.57955 110.319 -2.33359 110.451C-2.28195 110.474 -2.24257 110.511 -2.19093 110.535C-1.93184 110.68 -1.67274 110.824 -1.42679 110.956C-1.38827 110.968 -1.36201 110.992 -1.32349 111.004C-1.0644 111.148 -0.793054 111.279 -0.533965 111.424C-0.520836 111.436 -0.50771 111.448 -0.49544 111.435C-0.224092 111.567 0.0472557 111.698 0.305478 111.817C0.343999 111.828 0.39564 111.852 0.421894 111.877C0.680127 111.996 0.938349 112.114 1.19658 112.233C1.24822 112.257 1.29987 112.281 1.33838 112.292C1.4802 112.351 1.622 112.41 1.77693 112.482C-0.38933 119.837 -2.36213 127.275 -4.42597 134.652L-5.40132 138.134C-6.57221 142.223 -7.79474 146.289 -9.12056 150.307C-12.7476 142.651 -24.8706 118.667 -34.035 117.154C-36.8339 116.7 -38.835 117.663 -40.0696 119.493C-40.0941 119.519 -40.0932 119.545 -40.1178 119.571C-40.3228 119.898 -40.5147 120.236 -40.6926 120.613C-40.704 120.652 -40.7163 120.665 -40.7277 120.703C-40.8802 121.079 -41.0319 121.48 -41.145 121.893C-41.1564 121.932 -41.1556 121.957 -41.167 121.996C-41.2231 122.215 -41.267 122.421 -41.3232 122.64C-41.3232 122.64 -41.3354 122.653 -41.3223 122.665C-41.3662 122.871 -41.3969 123.089 -41.44 123.321C-41.4514 123.36 -41.4505 123.385 -41.4619 123.424C-41.4926 123.642 -41.5225 123.886 -41.5402 124.116C-41.5393 124.142 -41.5516 124.155 -41.5507 124.181C-41.5683 124.411 -41.5737 124.628 -41.5913 124.859C-41.5905 124.884 -41.6019 124.923 -41.5879 124.961C-41.5924 125.204 -41.5969 125.447 -41.5882 125.702C-41.5874 125.727 -41.5856 125.778 -41.5848 125.804C-41.577 126.034 -41.5692 126.263 -41.5484 126.505C-41.5475 126.531 -41.5466 126.556 -41.5326 126.594C-41.524 126.849 -41.49 127.104 -41.456 127.358C-41.4542 127.409 -41.4403 127.447 -41.4517 127.486C-41.4308 127.728 -41.3845 127.969 -41.3636 128.211C-41.3627 128.236 -41.3619 128.262 -41.361 128.287C-41.327 128.542 -41.2798 128.808 -41.2327 129.075C-41.231 129.126 -41.2039 129.176 -41.2021 129.227C-41.1427 129.481 -41.1087 129.735 -41.0362 130.001C-41.023 130.013 -41.0353 130.026 -41.0222 130.038C-40.9496 130.304 -40.8894 130.583 -40.8168 130.849C-40.802 130.912 -40.788 130.95 -40.7731 131.014C-40.628 131.545 -40.4445 132.088 -40.2486 132.618C-40.2337 132.681 -40.2066 132.731 -40.1918 132.795C-40.0939 133.06 -39.9959 133.325 -39.8849 133.602C-39.8717 133.614 -39.8709 133.64 -39.8709 133.64C-39.7607 133.891 -39.6636 134.131 -39.5534 134.383C-39.5263 134.433 -39.4983 134.508 -39.4712 134.559C-39.3479 134.823 -39.2377 135.074 -39.1021 135.325C-39.0881 135.363 -39.0619 135.388 -39.0479 135.425C-38.9254 135.664 -38.8161 135.89 -38.6814 136.116C-38.6543 136.166 -38.614 136.228 -38.5869 136.278C-38.4513 136.529 -38.3035 136.767 -38.1548 137.03C-38.1276 137.08 -38.1014 137.105 -38.0743 137.155C-37.9395 137.38 -37.8057 137.58 -37.671 137.805C-37.6439 137.856 -37.6036 137.918 -37.5642 137.955C-37.4033 138.205 -37.2432 138.43 -37.0699 138.666C-37.0428 138.717 -36.9903 138.766 -36.9632 138.816C-36.8162 139.028 -36.6569 139.227 -36.4977 139.426C-36.4583 139.463 -36.4312 139.513 -36.3918 139.55C-36.2063 139.774 -36.0208 139.997 -35.8353 140.221C-35.7828 140.27 -35.7557 140.32 -35.7032 140.37C-35.5185 140.568 -35.3593 140.767 -35.1624 140.952C-35.1361 140.976 -35.0967 141.013 -35.0705 141.038C-34.8727 141.248 -34.6495 141.458 -34.4518 141.668C-34.3993 141.718 -34.3468 141.767 -34.2943 141.816C-34.0974 142.001 -33.8873 142.198 -33.6782 142.37C-33.665 142.382 -33.6388 142.407 -33.6257 142.419C-33.3902 142.616 -33.1679 142.8 -32.9325 142.996C-32.88 143.045 -32.8152 143.081 -32.7627 143.131C-32.515 143.314 -32.2796 143.51 -32.0328 143.668C-24.4559 148.978 -17.3625 151.265 -12.8548 152.261C-11.6257 152.526 -10.6032 152.695 -9.79862 152.808C-12.0547 159.387 -14.632 165.862 -17.7766 172.101L-17.8361 172.218C-17.8843 172.296 -17.9194 172.387 -17.9676 172.465L-19.0175 174.494C-19.0175 174.494 -19.0175 174.494 -19.0167 174.519C-19.1008 174.663 -19.1718 174.818 -19.2559 174.962L-19.2918 175.027C-20.0218 176.367 -20.765 177.696 -21.5466 179.013C-30.9753 194.868 -43.9646 208.417 -59.3459 218.51C-60.8383 219.481 -59.1006 221.631 -57.6204 220.674C-44.0171 211.753 -32.2221 200.096 -23.0948 186.602C-21.0007 183.503 -19.0756 180.295 -17.3045 177.041L-15.9312 174.427C-12.5203 167.795 -9.69058 160.89 -7.23466 153.832C-7.03862 153.991 -6.83032 154.137 -6.62201 154.284C-6.58263 154.321 -6.51786 154.357 -6.47848 154.394C-6.21766 154.589 -5.94458 154.771 -5.67151 154.954C-5.64525 154.978 -5.61985 154.978 -5.5936 155.002C-5.33364 155.172 -5.0737 155.342 -4.81375 155.512C-4.76211 155.536 -4.73585 155.56 -4.69647 155.597C-4.42426 155.754 -4.16431 155.924 -3.89209 156.081C-3.84044 156.105 -3.77567 156.141 -3.7363 156.178C-3.46408 156.335 -3.205 156.479 -2.93365 156.61C-2.89512 156.622 -2.85575 156.659 -2.81722 156.67C-2.54587 156.801 -2.29991 156.934 -2.02855 157.065C-1.99004 157.076 -1.97691 157.089 -1.95066 157.113C-1.6793 157.244 -1.39569 157.363 -1.13746 157.481C-1.08582 157.505 -1.03418 157.529 -0.982534 157.553C-0.712045 157.658 -0.45382 157.777 -0.171073 157.87C-0.119419 157.894 -0.0808919 157.905 -0.029244 157.929C0.241245 158.035 0.523988 158.127 0.794476 158.233L0.807603 158.245C1.09036 158.338 1.37311 158.43 1.65586 158.523C1.70752 158.547 1.7583 158.545 1.80993 158.569C2.07956 158.649 2.34919 158.729 2.63108 158.796C2.695 158.807 2.74665 158.831 2.79743 158.829C3.07931 158.896 3.34893 158.976 3.61769 159.031C3.6431 159.03 3.68162 159.041 3.69474 159.054C3.9635 159.108 4.22 159.176 4.47564 159.219C4.51416 159.23 4.56495 159.228 4.60346 159.24C4.87222 159.294 5.15324 159.336 5.40888 159.378C5.47279 159.389 5.52358 159.387 5.58749 159.398C5.85539 159.427 6.12415 159.482 6.39205 159.511C6.43057 159.522 6.48135 159.521 6.51987 159.532C6.78778 159.561 7.03029 159.591 7.28506 159.608C7.31045 159.607 7.34897 159.619 7.37435 159.618C7.64226 159.647 7.9093 159.651 8.18946 159.667C8.24025 159.665 8.30415 159.675 8.35493 159.674C8.62198 159.677 8.87674 159.694 9.14378 159.698C9.19457 159.696 9.24535 159.694 9.29613 159.693C9.56316 159.696 9.83021 159.7 10.0972 159.704L10.1226 159.703C10.3897 159.706 10.669 159.697 10.9352 159.675C10.9859 159.673 11.0367 159.672 11.0875 159.67C11.3414 159.661 11.6076 159.639 11.8615 159.631C11.9123 159.629 11.9631 159.627 12.0261 159.612C12.2923 159.59 12.5585 159.568 12.8115 159.534C12.8369 159.533 12.8623 159.533 12.8877 159.532C13.1285 159.511 13.3815 159.477 13.6346 159.442C13.6853 159.441 13.723 159.427 13.7738 159.425C14.0268 159.391 14.2799 159.356 14.5198 159.31C14.6564 159.216 14.7072 159.214 14.7703 159.199Z" fill="#3D4775"/>
</svg>
