<svg width="162" height="262" viewBox="0 0 162 262" fill="none" xmlns="http://www.w3.org/2000/svg">
<path d="M32.0972 0.783393C32.0972 0.783393 -70.267 106.77 -89.7074 199.885C-96.3076 231.479 -94.4266 256.509 -89.0431 275.787C-77.832 315.986 -28.5623 329.291 1.03513 300.124C15.2299 286.137 29.2422 265.408 39.1559 234.704C68.3616 144.221 32.0972 0.783393 32.0972 0.783393Z" fill="#2F8C91"/>
<path d="M-29.4982 244.575C-27.8306 238.223 -26.156 231.882 -24.4884 225.53C-1.16919 220.124 22.1571 214.728 45.486 209.314C45.629 208.554 45.772 207.794 45.8982 207.031C22.6418 212.421 -0.614591 217.81 -23.871 223.2C-22.2926 217.204 -20.7116 211.191 -19.1332 205.195C3.0951 199.664 25.5477 195.134 48.152 191.63C48.2295 190.904 48.3239 190.18 48.4014 189.454C25.9156 192.915 3.60105 197.386 -18.5132 202.847C-16.9957 197.079 -15.4783 191.311 -13.9609 185.542C7.30452 181.234 28.5602 176.932 49.8256 172.624C49.8695 171.892 49.9135 171.161 49.9503 170.42C28.8539 174.693 7.74059 178.963 -13.3558 183.237C-11.7695 177.189 -10.1664 171.144 -8.58009 165.096C10.9197 159.346 30.6393 154.403 50.53 150.304C50.5305 149.575 50.5382 148.855 50.529 148.133C30.8533 152.178 11.3443 157.039 -7.9521 162.697C-6.31279 156.473 -4.67347 150.249 -3.04124 144.016C14.5409 139.094 32.3145 134.94 50.2237 131.581C50.2049 130.866 50.1692 130.149 50.1503 129.434C32.4728 132.741 14.9363 136.809 -2.41589 141.634C-1.08395 136.566 0.257732 131.492 1.58968 126.424C17.2971 121.327 33.2109 116.957 49.2852 113.331C49.2327 112.611 49.1873 111.901 49.1347 111.181C33.3214 114.733 17.6809 119.005 2.23269 123.984C3.85699 117.801 5.48128 111.619 7.10558 105.436C20.1277 99.7842 33.6759 95.5755 47.545 92.8576C47.4731 92.1522 47.4011 91.4468 47.322 90.7315C33.774 93.3759 20.5407 97.4399 7.77948 102.851C8.33594 100.749 8.88532 98.6365 9.44177 96.5341C9.70795 96.2588 9.84579 95.8671 9.73148 95.4363C10.1307 93.9073 10.537 92.3881 10.9362 90.859C21.9899 85.1927 33.8928 81.6087 46.1497 80.2502C46.061 79.5422 45.9793 78.844 45.8905 78.136C34.0069 79.4731 22.456 82.8391 11.6579 88.1318C12.8803 83.4956 14.093 78.8668 15.3154 74.2307C24.6933 70.3357 34.3042 67.1623 44.1118 64.7223C44.0062 64.0117 43.9077 63.311 43.8021 62.6004C34.3351 64.9523 25.0462 67.9909 15.984 71.6798C17.1128 67.3719 18.2584 63.0667 19.3872 58.7589C25.9722 57.1834 32.5404 55.6053 39.1254 54.0298C40.2073 53.7662 41.3131 53.5152 42.3949 53.2516C42.2796 52.5483 42.1714 51.8549 42.0632 51.1614C40.4452 51.5531 38.8326 51.9104 37.2341 52.2875C31.4895 53.6588 25.7519 55.0401 20.0073 56.4114C20.9656 52.7628 21.9213 49.1313 22.8796 45.4826C28.4946 43.0542 34.2026 40.8598 39.9983 38.9339C39.876 38.2207 39.7438 37.5148 39.6188 36.8188C34.1955 38.6176 28.8413 40.6381 23.573 42.8828C24.6938 38.6265 25.8049 34.3774 26.9329 30.131C30.4684 28.7436 34.0474 27.5211 37.6839 26.4833C37.5447 25.7675 37.4029 25.0689 37.2681 24.3801C34.0084 25.318 30.7709 26.391 27.5891 27.6046C28.2604 25.0365 28.9387 22.4783 29.61 19.9103C31.6913 19.0805 33.7656 18.2408 35.8372 17.4182C35.6909 16.6926 35.5393 16.0012 35.3948 15.3197C33.6885 16.0054 31.9823 16.691 30.2857 17.3693C31.2899 13.5344 32.3013 9.70934 33.3153 5.86715C32.5503 2.56753 32.094 0.783251 32.094 0.783251C32.094 0.783251 30.8462 2.06701 28.6151 4.48202C27.4916 8.75552 26.3682 13.029 25.2447 17.3025C24.4166 15.2499 23.4381 13.2795 22.3456 11.3794C21.8663 11.9206 21.3773 12.469 20.8689 13.0321C22.235 15.5018 23.3995 18.1073 24.319 20.8508C23.5409 23.833 22.7459 26.8125 21.9678 29.7947C20.3559 25.793 18.4212 21.9875 16.1637 18.3782C15.6844 18.9194 15.2122 19.4705 14.7206 20.0361C17.0737 23.8623 19.0696 27.9409 20.6657 32.2126C20.7675 32.5008 20.9552 32.6792 21.1702 32.7915C19.7217 38.2803 18.2829 43.7619 16.8343 49.2507C13.5961 42.6249 10.1226 36.1297 6.44044 29.7605C5.96561 30.3287 5.48105 30.9042 5.00357 31.4896C8.92748 38.3004 12.6037 45.2664 16.0182 52.3677C14.7242 57.3004 13.4205 62.2403 12.1266 67.173C7.53818 58.1415 2.71717 49.2234 -2.30551 40.4412C-2.78299 41.0265 -3.24367 41.6145 -3.7238 42.2171C1.52642 51.4212 6.54846 60.7658 11.3255 70.2483C9.73917 76.2959 8.14313 82.3508 6.55681 88.3985C0.869154 76.2266 -5.27668 64.2915 -11.8568 52.6058C-12.3201 53.2109 -12.7834 53.8161 -13.2565 54.4285C-6.45146 66.5533 -0.11965 78.9565 5.72746 91.6012C4.68257 95.5881 3.62795 99.5822 2.58308 103.569C-5.81885 91.3646 -14.2208 79.1601 -22.6227 66.9557C-23.0595 67.5562 -23.4963 68.1566 -23.9428 68.7644C-15.3452 81.2627 -6.73789 93.7537 1.86676 106.262C-0.169153 113.998 -2.20505 121.734 -4.24095 129.47C-12.3823 112.226 -21.44 95.4553 -31.3741 79.2351C-31.8162 79.8699 -32.2486 80.4974 -32.6907 81.1322C-22.5528 97.7618 -13.3277 114.953 -5.07473 132.645C-6.93309 139.732 -8.79853 146.809 -10.6666 153.903C-22.3469 136.226 -34.0343 118.54 -45.7146 100.863C-46.1257 101.521 -46.5439 102.168 -46.9453 102.818C-35.0906 120.758 -23.2359 138.699 -11.3714 156.632C-12.0807 159.335 -12.7899 162.038 -13.5063 164.731C-14.3657 168.017 -15.2419 171.3 -16.1013 174.586C-29.2853 155.5 -42.4764 136.404 -55.6604 117.318C-56.0476 117.987 -56.4446 118.664 -56.8247 119.344C-43.4849 138.647 -30.1477 157.968 -16.8079 177.272C-18.1398 182.339 -19.4717 187.407 -20.8037 192.474C-36.1398 174.286 -51.4759 156.098 -66.8217 137.917C-67.1682 138.601 -67.5148 139.286 -67.8542 139.981C-52.4729 158.211 -37.1014 176.449 -21.7202 194.679C-21.6325 194.781 -21.5396 194.848 -21.4467 194.915C-23.3554 202.161 -25.2544 209.399 -27.1631 216.645C-43.237 196.488 -59.3012 176.324 -75.3751 156.168C-75.6862 156.902 -76.007 157.643 -76.3181 158.377C-60.1592 178.653 -44.0003 198.928 -27.8317 219.196C-29.2626 224.626 -30.6838 230.049 -32.1146 235.479C-49.7676 217.75 -67.4373 200.019 -85.0902 182.29C-85.3297 183.061 -85.5594 183.825 -85.782 184.6C-68.0981 202.351 -50.4168 220.119 -32.7329 237.871C-34.26 243.646 -35.7704 249.424 -37.2976 255.2C-56.0676 240.084 -73.9853 223.905 -90.9771 206.744C-91.1289 207.617 -91.2781 208.473 -91.4104 209.331C-74.4602 226.372 -56.5939 242.437 -37.8752 257.439C-40.3359 266.815 -42.8135 276.187 -45.2742 285.563C-62.1176 272.072 -78.3022 257.769 -93.805 242.727C-93.7763 243.769 -93.7352 244.786 -93.6869 245.813C-78.4868 260.474 -62.6244 274.41 -46.1518 287.571C-46.0518 287.648 -45.9492 287.708 -45.8341 287.744C-46.864 291.689 -47.9107 295.631 -48.9405 299.577C-62.8462 289.414 -76.7421 279.243 -90.6406 269.09C-90.4102 270.163 -90.1602 271.221 -89.9076 272.262C-76.4427 282.102 -62.9778 291.942 -49.5226 301.789C-50.5542 305.69 -51.5788 309.601 -52.6007 313.495C-51.0479 313.972 -49.4579 314.376 -47.8671 314.718C-47.58 313.638 -47.2929 312.557 -47.0059 311.476C-32.1892 308.808 -17.3726 306.14 -2.56565 303.479C-1.53091 302.628 -0.521858 301.721 0.475676 300.776C-15.154 303.583 -30.7765 306.399 -46.4159 309.212C-45.4911 305.725 -44.5831 302.236 -43.6584 298.749C-25.1962 295.264 -6.73141 291.762 11.7307 288.277C12.3824 287.455 13.0296 286.606 13.6698 285.747C-5.23645 289.321 -24.1524 292.903 -43.0657 296.468C-41.6375 291.055 -40.219 285.649 -38.7908 280.236C-17.7763 276.662 3.23109 273.078 24.2456 269.504C24.6849 268.72 25.1243 267.935 25.5592 267.123C4.30589 270.74 -16.9404 274.366 -38.1839 277.975C-36.9483 273.253 -35.6958 268.533 -34.4601 263.811C-34.4222 263.677 -34.3939 263.549 -34.3559 263.414C-12.1743 258.465 10.2291 254.701 32.7772 252.12C33.098 251.379 33.4118 250.627 33.7184 249.866C11.0624 252.422 -11.4516 256.177 -33.7412 261.101C-33.5787 260.494 -33.4161 259.886 -33.2633 259.286C-33.2015 259.163 -33.1635 259.028 -33.1618 258.906C-32.1222 254.953 -31.0826 251.001 -30.0333 247.041C-6.66435 239.972 17.0085 234.058 40.9181 229.288C41.131 228.521 41.3606 227.757 41.5664 226.98C17.5498 231.663 -6.12041 237.56 -29.4982 244.575Z" fill="#286F7F"/>
</svg>
