<svg width="127" height="122" viewBox="0 0 127 122" fill="none" xmlns="http://www.w3.org/2000/svg">
<path d="M78.2278 0.583348C78.2278 0.583348 -57.1812 56.277 -111.603 133.81C-130.072 160.115 -138.193 183.84 -140.846 203.71C-146.391 245.135 -106.512 277.332 -67.9417 262.585C-49.444 255.513 -28.4616 242.183 -7.3087 218.038C55.0183 146.883 78.2278 0.583348 78.2278 0.583348Z" fill="#1A4143"/>
<path d="M-74.0528 199.244C-70.0279 194.094 -66.0004 188.956 -61.9755 183.806C-38.4975 188.308 -15.017 192.822 8.47267 197.322C8.90256 196.683 9.33242 196.043 9.74792 195.395C-13.6659 190.903 -37.0798 186.41 -60.4936 181.918C-56.6902 177.058 -52.8775 172.183 -49.074 167.323C-26.546 171.268 -4.20643 176.223 17.8688 182.18C18.2254 181.546 18.5964 180.92 18.9531 180.285C-2.99661 174.336 -25.1871 169.384 -47.5831 165.421C-43.925 160.745 -40.267 156.069 -36.6089 151.393C-15.4432 156.069 5.71065 160.747 26.8763 165.424C27.2042 164.77 27.5321 164.117 27.8574 163.452C6.8604 158.812 -14.151 154.163 -35.1481 149.523C-31.3171 144.618 -27.4717 139.723 -23.6407 134.819C-3.52464 137.456 16.4751 140.923 36.2996 145.233C36.587 144.564 36.877 143.907 37.1526 143.241C17.5464 138.968 -2.22843 135.511 -22.1222 132.873C-18.1733 127.828 -14.2244 122.783 -10.2781 117.727C7.75618 120.346 25.6637 123.748 43.3831 127.933C43.6469 127.269 43.8964 126.597 44.1602 125.933C26.6736 121.794 9.01706 118.41 -8.76872 115.796C-5.55615 111.687 -2.33178 107.576 0.880789 103.468C17.2674 105.165 33.5575 107.613 49.7013 110.81C49.9364 110.128 50.1741 109.458 50.4091 108.776C34.5334 105.618 18.5323 103.191 2.42944 101.49C6.34822 96.4771 10.267 91.4645 14.1858 86.4519C28.3321 86.5506 42.3925 88.1869 56.1603 91.3212C56.3718 90.6449 56.5834 89.9685 56.7923 89.2802C43.3474 86.2088 29.6323 84.5675 15.8196 84.3537C17.156 82.6508 18.4898 80.9359 19.8261 79.2329C20.1781 79.0884 20.4584 78.7849 20.5232 78.3434C21.4901 77.1026 22.4596 75.8738 23.4265 74.633C35.776 73.92 48.0842 75.4619 59.8413 79.189C60.0384 78.5035 60.2382 77.8299 60.4354 77.1443C49.0286 73.5491 37.1285 71.9499 25.1599 72.4239C28.1026 68.6668 31.0335 64.9124 33.9761 61.1552C44.0946 61.3873 54.1427 62.3758 64.0824 64.1169C64.2652 63.4222 64.4506 62.7394 64.6334 62.0446C55.0402 60.3609 45.3399 59.3794 35.5916 59.0864C38.3194 55.5924 41.0616 52.1077 43.7895 48.6137C50.4385 49.8403 57.0732 51.0578 63.7222 52.2844C64.8164 52.4816 65.9276 52.7 67.0218 52.8972C67.1929 52.2052 67.3665 51.5251 67.5402 50.845C65.9047 50.5478 64.2876 50.2213 62.6757 49.9186C56.8764 48.8457 51.0797 47.7847 45.2804 46.7118C47.5929 43.7534 49.8963 40.8097 52.2087 37.8513C58.3051 37.9018 64.3945 38.2049 70.4586 38.7898C70.6271 38.0858 70.7837 37.3846 70.943 36.6953C65.2698 36.145 59.5727 35.826 53.8661 35.7476C56.5664 32.2977 59.2549 28.8505 61.9578 25.4125C65.7407 25.5743 69.4985 25.905 73.2363 26.4285C73.3904 25.7154 73.5353 25.0169 73.6828 24.3304C70.3293 23.868 66.9429 23.5388 63.5523 23.361C65.177 21.2775 66.8042 19.2059 68.4288 17.1224C70.6609 17.2056 72.8904 17.277 75.1107 17.363C75.2622 16.6379 75.3953 15.9421 75.531 15.2583C73.6991 15.1949 71.8671 15.1316 70.0469 15.0654C72.4747 11.9548 74.9051 8.85613 77.3447 5.74276C77.942 2.40533 78.2259 0.583264 78.2259 0.583264C78.2259 0.583264 76.5785 1.25468 73.5859 2.5649C70.8764 6.0295 68.167 9.4941 65.4575 12.9587C65.5066 10.7396 65.3856 8.53502 65.1326 6.34855C64.4809 6.65055 63.8175 6.95528 63.1305 7.26549C63.41 10.0855 63.4515 12.9483 63.2144 15.8382C61.3291 18.2583 59.4293 20.6692 57.5439 23.0893C57.6419 18.7641 57.3672 14.488 56.7197 10.2608C56.068 10.5628 55.4189 10.8767 54.7463 11.1961C55.396 15.6611 55.6194 20.2126 55.4007 24.7791C55.3806 25.0848 55.4823 25.3246 55.635 25.5149C52.1499 29.9626 48.6766 34.4075 45.1915 38.8551C44.8325 31.4627 44.2067 24.0946 43.3402 16.7574C42.682 17.086 42.0119 17.4174 41.3445 17.7607C42.2586 25.6011 42.885 33.4833 43.2184 41.3834C40.0936 45.3836 36.957 49.3865 33.8322 53.3867C33.183 43.2394 32.2763 33.1018 31.1315 23.007C30.4641 23.3503 29.811 23.7028 29.1344 24.0607C30.3216 34.6349 31.2447 45.2453 31.8891 55.8829C28.0581 60.7873 24.2154 65.6944 20.3844 70.5987C19.9638 57.1245 19.0307 43.6815 17.6018 30.2911C16.9395 30.6583 16.2773 31.0255 15.6033 31.3954C17.0654 45.2798 17.9848 59.2276 18.3653 73.2004C15.8406 76.4339 13.3041 79.6702 10.7793 82.9037C7.88635 68.2982 4.99339 53.6927 2.10043 39.0872C1.46434 39.4608 0.828243 39.8345 0.180378 40.2108C3.1369 55.1653 6.1052 70.1171 9.06432 85.0835C4.15767 91.3542 -0.748986 97.625 -5.65564 103.896C-6.32794 84.7727 -8.02555 65.7124 -10.7421 46.8011C-11.3965 47.2041 -12.0392 47.6044 -12.6936 48.0074C-9.95166 67.3768 -8.26647 86.8916 -7.66809 106.471C-12.1568 112.218 -16.6481 117.953 -21.1486 123.703C-24.8912 102.747 -28.6364 81.7797 -32.3791 60.824C-33.0139 61.2601 -33.6514 61.6842 -34.2745 62.1175C-30.4761 83.3864 -26.6777 104.655 -22.8676 125.921C-24.58 128.113 -26.2924 130.305 -28.0075 132.485C-30.0868 135.151 -32.1804 137.807 -34.2597 140.473C-38.8246 117.614 -43.3921 94.7425 -47.957 71.8832C-48.5749 72.3404 -49.2046 72.8003 -49.8199 73.2695C-45.1979 96.3915 -40.585 119.528 -35.9629 142.65C-39.1755 146.758 -42.3881 150.867 -45.6007 154.975C-52.4893 132.066 -59.3778 109.158 -66.2782 86.2517C-66.8648 86.7393 -67.4513 87.2268 -68.0353 87.7263C-61.122 110.692 -54.2204 133.66 -47.3071 156.626C-47.2667 156.755 -47.208 156.854 -47.1493 156.953C-51.7468 162.826 -56.3324 168.696 -60.9299 174.569C-67.7198 149.555 -74.498 124.538 -81.288 99.5244C-81.8616 100.072 -82.447 100.622 -83.0206 101.169C-76.1994 126.326 -69.3783 151.483 -62.5453 176.638C-65.9911 181.039 -69.4251 185.437 -72.8709 189.838C-82.0616 166.41 -91.2666 142.974 -100.457 119.546C-100.98 120.157 -101.491 120.765 -101.999 121.385C-92.7889 144.845 -83.5879 168.32 -74.3777 191.781C-78.0475 196.46 -81.7029 201.148 -85.3728 205.826C-96.6141 184.343 -106.657 162.23 -115.465 139.592C-115.948 140.332 -116.421 141.056 -116.88 141.79C-108.062 164.3 -98.0215 186.289 -86.7825 207.647C-92.723 215.249 -98.6777 222.842 -104.618 230.444C-114.734 211.234 -123.928 191.545 -132.207 171.456C-132.59 172.423 -132.953 173.372 -133.312 174.334C-125.161 193.951 -116.118 213.173 -106.212 231.931C-106.151 232.042 -106.08 232.139 -105.989 232.218C-108.483 235.419 -110.992 238.612 -113.487 241.813C-122.222 226.847 -130.945 211.878 -139.678 196.924C-139.889 198.002 -140.076 199.074 -140.254 200.131C-131.796 214.622 -123.337 229.113 -114.89 243.607C-117.369 246.767 -119.845 249.939 -122.312 253.096C-121.078 254.164 -119.781 255.18 -118.459 256.14C-117.771 255.265 -117.083 254.39 -116.396 253.515C-101.78 257.079 -87.1639 260.644 -72.5598 264.211C-71.2778 263.85 -69.9969 263.427 -68.7121 262.965C-84.1266 259.198 -99.5386 255.442 -114.965 251.677C-112.747 248.854 -110.543 246.021 -108.325 243.197C-90.0499 247.492 -71.7658 251.771 -53.4908 256.066C-52.5708 255.576 -51.6442 255.059 -50.7202 254.531C-69.437 250.139 -88.1656 245.749 -106.885 241.345C-103.448 236.959 -100.024 232.575 -96.5869 228.189C-75.9399 233.437 -55.2955 238.673 -34.6486 243.922C-33.9377 243.38 -33.2268 242.838 -32.5093 242.27C-53.3916 236.964 -74.2713 231.669 -95.1418 226.36C-92.1532 222.53 -89.1503 218.708 -86.1618 214.878C-86.074 214.77 -85.998 214.664 -85.9102 214.556C-63.6536 219.016 -41.6603 224.654 -19.9995 231.435C-19.4142 230.885 -18.8314 230.323 -18.2513 229.749C-40.0008 222.901 -62.0921 217.211 -84.4376 212.683C-84.0498 212.192 -83.6619 211.7 -83.2859 211.212C-83.1812 211.125 -83.0934 211.016 -83.0435 210.904C-80.5371 207.7 -78.0308 204.496 -75.5126 201.289C-51.3354 204.287 -27.3339 208.467 -3.56565 213.792C-3.06912 213.175 -2.5582 212.567 -2.06427 211.938C-25.8965 206.49 -49.8888 202.295 -74.0528 199.244Z" fill="#2F8C91"/>
</svg>
