<svg width="98" height="299" viewBox="0 0 98 299" fill="none" xmlns="http://www.w3.org/2000/svg">
<path d="M-41.7195 51.9815C-56.8667 58.4929 -79.4032 54.2618 -87.4733 52.412C-79.4625 59.6232 -72.0122 67.144 -65.137 74.937C-11.9362 63.823 42.936 79.1576 42.936 79.1576C42.936 79.1576 30.289 78.0541 -3.64304 82.4293C-33.5875 86.2926 -55.8897 79.4727 -63.7181 76.5215C-57.3192 83.8887 -51.4391 91.4971 -46.0764 99.3285C-44.1312 102.159 -42.279 105.036 -40.4811 107.925C-24.5918 112.435 -1.39747 100.573 22.5703 99.192C40.6301 98.1593 62.5476 120.409 62.5476 120.409C62.5476 120.409 40.9756 102.58 14.7341 112.214C-6.21983 119.918 -31.1672 111.724 -40.3742 108.117C-34.6742 117.322 -29.6933 126.822 -25.4282 136.58C-20.4069 136.22 -3.62261 135.158 13.2343 135.843C33.0807 136.647 77.2439 146.728 77.2439 146.728C77.2439 146.728 59.812 150.63 34.7032 150.888C14.4263 151.113 -17.1655 140.225 -25.0916 137.373C-21.6003 145.482 -18.6038 153.76 -16.1196 162.209C-11.0432 162.416 6.12406 163.203 23.9685 164.942C45.2422 167.041 97.0321 187.597 97.0321 187.597C97.0321 187.597 81.2616 186.09 47.4892 183.209C18.4552 180.74 -8.75974 167.001 -15.8346 163.178C-13.6309 170.802 -11.8467 178.55 -10.4645 186.422C-6.39366 191.267 3.31143 206.435 5.05359 242.3C7.11282 284.469 4.57476 298.191 4.57476 298.191C4.57476 298.191 -24.4261 227.496 -13.1934 187.543C-14.4119 180.411 -15.97 173.501 -17.8166 166.835C-21.279 174.686 -34.3601 202.697 -54.861 227.559C-78.9729 256.813 -87.2095 264.648 -87.2095 264.648C-87.2095 264.648 -58.3836 208.225 -42.2879 190.253C-29.5909 176.095 -21.1319 168.353 -18.1063 165.72C-20.6726 156.611 -23.7758 147.941 -27.307 139.685C-30.801 147.296 -44.9586 176.022 -66.0401 189.842C-90.4811 205.865 -99.5045 228.276 -99.5045 228.276C-99.5045 228.276 -96.1245 204.861 -67.5503 178.675C-43.853 156.943 -31.2061 143.142 -27.5701 139.061C-32.237 128.25 -37.6092 118.169 -43.4898 108.802C-45.9072 115.699 -54.3587 136.695 -72.6346 152.666C-94.8047 172.041 -113.974 202.197 -113.974 202.197C-113.974 202.197 -99.0328 158.931 -74.4227 132.607C-56.6722 113.613 -48.0554 108.443 -44.6251 107.026C-51.4049 96.4139 -58.8023 86.7404 -66.4411 77.9688C-67.7275 84.1389 -73.0488 104.288 -90.9903 126.764C-112.557 153.792 -129.288 174.659 -129.288 174.659C-129.288 174.659 -95.5881 96.5576 -67.3742 76.9016C-75.0035 68.2215 -82.8743 60.4433 -90.6103 53.53C-91.1419 59.01 -93.9309 75.6996 -108.859 91.7508C-127.052 111.319 -131.18 122.407 -134.828 137.801C-134.828 137.801 -132.561 104.907 -120.438 89.8416C-106.256 72.2151 -93.9378 63.2245 -90.9077 53.2844C-96.0656 48.6815 -101.17 44.4645 -106.113 40.6254C-145.683 9.81881 -183.082 -3.79344 -183.442 -3.93621C-184.199 -4.2071 -184.585 -5.04134 -184.32 -5.81408C-184.292 -5.92029 -184.232 -6.00519 -184.188 -6.09175C-183.835 -6.65677 -183.135 -6.93519 -182.481 -6.71024C-182.102 -6.58378 -144.343 7.17124 -104.42 38.2104C-98.9963 42.4214 -93.7804 46.7759 -88.7696 51.2379C-82.1972 49.6283 -58.1857 43.6456 -42.6439 38.6582C-24.5065 32.8461 17.3058 52.4233 17.3058 52.4233C17.3058 52.4233 -22.9722 43.9424 -41.7195 51.9815Z" fill="#FCF4DF"/>
</svg>
